IKResults
version=1
nRows=22
nColumns=24
inDegrees=yes

Units are S.I. units (second, meters, Newtons, ...)
If the header above contains a line with 'inDegrees', this indicates whether rotational values are in degrees (yes) or radians (no).

endheader
time	pelvis_tilt	pelvis_list	pelvis_rotation	pelvis_tx	pelvis_ty	pelvis_tz	hip_flexion_r	hip_adduction_r	hip_rotation_r	knee_angle_r	ankle_angle_r	subtalar_angle_r	mtp_angle_r	hip_flexion_l	hip_adduction_l	hip_rotation_l	knee_angle_l	ankle_angle_l	subtalar_angle_l	mtp_angle_l	lumbar_extension	lumbar_bending	lumbar_rotation
      2.89000000	      8.63967541	    -13.30398879	    -88.41218886	     -0.24130211	      0.95484965	     -5.30751003	    -26.96826390	     -6.61384513	     -4.96456452	    -35.94391692	      5.99841959	     -1.26000620	      0.00000000	      8.78286930	     13.63084242	      8.71735286	    -19.45133429	      1.44620364	    -20.91089532	      0.00000000	    -29.11072891	    -12.23026149	      4.22976812
      2.90000000	      8.81086940	    -13.17222793	    -88.41813599	     -0.23946599	      0.95737294	     -5.29432860	    -25.20270597	     -7.55478201	     -5.40022145	    -39.04495597	      3.05350947	     -0.22902513	      0.00000000	      7.70003702	     13.85777270	      8.26692998	    -18.91867980	      1.91589556	    -20.73470465	      0.00000000	    -28.92145602	    -12.38460249	      3.94913833
      2.91000000	      9.30898725	    -13.46473884	    -88.30376179	     -0.23726856	      0.95922807	     -5.28180226	    -24.09613394	     -8.93727854	     -7.02615809	    -42.28851165	      0.85647096	      0.36380407	      0.00000000	      6.35144090	     14.44696213	      6.93147276	    -19.01652975	      3.03367450	    -19.81353720	      0.00000000	    -29.08147312	    -12.86955923	      3.45211255
      2.92000000	      9.32307664	    -13.68343317	    -88.25862549	     -0.23481976	      0.96198780	     -5.27028200	    -22.20028494	     -9.69404170	     -7.02829594	    -45.74158895	     -2.02394420	      0.89049260	      0.00000000	      5.16071594	     14.58532086	      7.67639272	    -18.47806669	      3.39081081	    -19.41712084	      0.00000000	    -29.52155759	    -12.69124824	      3.18051744
      2.93000000	      9.46977252	    -14.20614599	    -88.15369396	     -0.23315558	      0.96439042	     -5.25786404	    -20.96597220	    -10.39696848	     -7.39188894	    -48.73836176	     -5.83729150	     -1.68015581	      0.00000000	      3.48258221	     14.67261742	      5.89824443	    -18.51588755	      5.51633727	    -16.27014284	      0.00000000	    -30.11464245	    -12.77307397	      2.80550528
      2.94000000	      9.75800075	    -14.45373865	    -88.08621456	     -0.23162914	      0.96628888	     -5.24612697	    -19.67739382	    -11.25949340	     -8.02255829	    -51.25740348	     -7.37855944	     -2.39792700	      0.00000000	      2.09583050	     15.01835744	      6.86870795	    -17.65144414	      5.82301113	    -16.20477271	      0.00000000	    -30.47398838	    -13.02012303	      2.23642423
      2.95000000	      9.66964632	    -15.09285425	    -88.12633247	     -0.22969714	      0.96902036	     -5.23376316	    -18.26262376	    -11.64991759	     -7.47830663	    -53.89153053	     -9.68297844	     -3.58758505	      0.00000000	      0.13380650	     15.02187158	      7.47073328	    -17.03996292	      6.59888146	    -16.31873096	      0.00000000	    -31.16230614	    -12.84697249	      2.13401068
      2.96000000	      9.68785298	    -15.46779712	    -87.82756592	     -0.22905801	      0.97081355	     -5.22191371	    -17.14762208	    -11.86495404	     -8.16328918	    -56.11379774	     -9.56180965	     -7.04390559	      0.00000000	     -1.53632088	     14.79311193	      6.41820916	    -16.36786540	      7.62093976	    -13.74309541	      0.00000000	    -31.61850640	    -12.70972743	      1.60948638
      2.97000000	      9.43544634	    -16.05642621	    -87.92283172	     -0.22752493	      0.97321882	     -5.20972413	    -15.71541669	    -11.94538521	     -7.70080465	    -58.44127352	     -9.07210220	     -7.74609258	      0.00000000	     -3.51826645	     14.57690989	      7.11365625	    -15.58428697	      8.11006410	    -13.80604544	      0.00000000	    -32.19066782	    -12.37976877	      1.55489157
      2.98000000	      9.14721417	    -16.34700030	    -87.75807448	     -0.22684995	      0.97516638	     -5.19796369	    -14.01412179	    -11.73610388	     -7.89519576	    -60.62697203	     -7.51912807	     -9.38037858	      0.00000000	     -4.85627473	     14.08488617	      6.42961082	    -15.32776930	      8.84097033	    -13.12196826	      0.00000000	    -32.47276655	    -11.94973621	      1.19205718
      2.99000000	      9.03510619	    -16.46839965	    -87.38916994	     -0.22614739	      0.97686515	     -5.18609134	    -12.48402161	    -11.67782231	     -8.17922728	    -62.03955100	     -5.90027824	    -10.61423215	      0.00000000	     -6.56067120	     13.78546184	      6.71316744	    -14.10448595	      9.51775676	    -12.00185842	      0.00000000	    -32.70758922	    -11.73772793	      0.61387825
      3.00000000	      8.80227950	    -16.75679773	    -87.47304140	     -0.22514811	      0.97848112	     -5.17486039	    -10.61997557	    -11.62878661	     -8.04828011	    -63.68796116	     -5.22958129	    -12.05044293	      0.00000000	     -7.62950686	     13.53851723	      6.60887009	    -14.23371497	     10.99881057	    -10.01407476	      0.00000000	    -33.09465545	    -11.48058012	      0.56682921
      3.01000000	      7.46423695	     -4.72097737	    -90.31775768	     -0.22098205	      0.97390368	     -5.16614456	      7.16027316	    -11.01444987	     -4.64625786	    -66.21741777	     -6.13409133	    -12.72321773	      0.00000000	      6.03626386	     12.84479107	      3.97762122	    -15.23507009	      8.69194028	    -10.11667916	      0.00000000	    -19.70740213	    -11.16164890	      3.62027639
      3.02000000	      7.50831331	     -4.87292536	    -90.01653552	     -0.21999533	      0.97455529	     -5.15494587	      8.50518656	    -11.13204110	     -5.12094099	    -66.92102862	     -4.12929266	    -14.31150587	      0.00000000	      4.76388536	     12.91904511	      3.89461809	    -14.73259308	      8.87788477	    -10.25122789	      0.00000000	    -20.00355631	    -11.11051563	      2.84973783
      3.03000000	      7.23338669	     -4.96735498	    -89.72270842	     -0.21917870	      0.97561797	     -5.14401931	     10.58256602	    -10.59140613	     -4.78279218	    -67.72871181	     -3.64447488	    -15.94685662	      0.00000000	      3.63201734	     12.73361881	      4.89958358	    -14.36206704	      9.48368505	    -10.76030531	      0.00000000	    -20.19281039	    -10.70503725	      2.37871262
      3.04000000	      7.24762631	     -5.21279701	    -89.45673446	     -0.21789020	      0.97623942	     -5.13252607	     11.81442033	    -10.63560570	     -5.12865937	    -67.93552015	     -1.81036660	    -17.13655109	      0.00000000	      2.58077434	     12.74246228	      4.50224406	    -14.48762793	      9.86329390	    -10.41475530	      0.00000000	    -20.63734750	    -10.63658358	      2.01130513
      3.05000000	      7.14174013	     -5.40036549	    -89.25585157	     -0.21604344	      0.97705056	     -5.12052239	     13.28698709	    -10.51591629	     -5.14382503	    -67.97066848	     -0.67157288	    -17.74305297	      0.00000000	      1.46693789	     12.85302181	      5.80776782	    -14.46676368	     10.52062848	    -10.64265492	      0.00000000	    -20.98922338	    -10.25940541	      1.72107443
      3.06000000	      4.34537480	     -1.42482106	    -89.64233204	     -0.21421909	      0.97717567	     -5.11216289	     19.74804205	     -7.00510880	     -4.83749442	    -66.81789678	     -2.44788686	    -18.18514060	      0.00000000	      5.47524071	      9.82865769	      4.55121661	    -14.85244563	     10.80786879	     -9.76530899	      0.00000000	    -16.62700636	     -7.20906331	      2.95004759
      3.07000000	      4.21367261	     -1.56239946	    -89.31688990	     -0.21282862	      0.97758002	     -5.10071649	     21.14184105	     -6.78626662	     -4.93825061	    -66.33958633	     -1.10085775	    -19.05061287	      0.00000000	      4.62629972	      9.78612912	      5.17091975	    -15.11016850	     11.48432505	     -9.52579551	      0.00000000	    -16.89363762	     -6.96252669	      2.25475588
      3.08000000	      4.03678682	     -1.67915439	    -88.87647611	     -0.21146730	      0.97792095	     -5.08935767	     22.47223229	     -6.55919616	     -5.09076854	    -65.52902934	      0.02783145	    -18.90700528	      0.00000000	      3.60175591	      9.60123824	      5.14303584	    -14.92014239	     12.35799362	     -8.62937242	      0.00000000	    -17.05433835	     -6.59561792	      1.61731617
      3.09000000	      3.77377431	     -1.80516633	    -88.37061823	     -0.21014475	      0.97804164	     -5.07772879	     23.64283327	     -6.24369852	     -5.33622091	    -64.47206733	      0.37395752	    -18.80414832	      0.00000000	      2.51340386	      9.40034660	      6.08944294	    -14.94357221	     12.58060154	     -8.58227256	      0.00000000	    -17.37818301	     -6.07819229	      1.50137792
      3.10000000	      3.67897884	     -1.84543593	    -88.03787734	     -0.20907995	      0.97785590	     -5.06644323	     24.97282339	     -6.06184219	     -5.31873748	    -63.29737833	      2.59787275	    -16.00287080	      0.00000000	      1.60580654	      9.29636161	      6.20370775	    -14.79625330	     14.04311867	     -7.42435327	      0.00000000	    -17.48780191	     -5.96461199	      0.90653764
